<?xml version="1.0" encoding="utf-8"?>
<!-- Generator: Adobe Illustrator 18.0.0, SVG Export Plug-In . SVG Version: 6.00 Build 0)  -->
<!DOCTYPE svg PUBLIC "-//W3C//DTD SVG 1.1//EN" "http://www.w3.org/Graphics/SVG/1.1/DTD/svg11.dtd">
<svg version="1.1" id="Layer_1" xmlns="http://www.w3.org/2000/svg" xmlns:xlink="http://www.w3.org/1999/xlink" x="0px" y="0px"
	 viewBox="0 0 1549.9 1275.1" enable-background="new 0 0 1549.9 1275.1" xml:space="preserve">
<rect x="106.1" y="1116.9" fill="#F7F8FC" width="1325.5" height="49.9"/>
<path fill="none" stroke="#010101" stroke-miterlimit="10" d="M665.4,329.2h-63.9v-69.3h63.9V329.2z M665.4,336.7h-63.9V406h63.9
	V336.7z M621.9,329.2v-69.3 M644.2,329.2v-69.3 M665.4,294.7h-63.9 M621.9,406v-69.3 M644.2,406v-69.3 M601.4,371.2h63.9
	 M675.1,248.7h-83.7v178.9h83.7V248.7z M688,235.8H577.4v203.7H688V235.8z M675.1,415.4h-83.7v12.2h83.7V415.4z"/>
<rect x="471.1" y="196.3" fill="none" stroke="#0E0E0E" stroke-miterlimit="10" width="591.6" height="16.9"/>
<rect x="477.2" y="213.1" fill="none" stroke="#0E0E0E" stroke-miterlimit="10" width="5.4" height="10.1"/>
<rect x="498.7" y="213.1" fill="none" stroke="#0E0E0E" stroke-miterlimit="10" width="5.4" height="10.1"/>
<rect x="540" y="213.1" fill="none" stroke="#0E0E0E" stroke-miterlimit="10" width="5.4" height="10.1"/>
<path fill="none" stroke="#0E0E0E" stroke-miterlimit="10" d="M603.2,223.2h-5.4v-10.1h5.4V223.2z M718.9,213.1h-5.4v10.1h5.4V213.1
	z M661.1,213.1h-5.4v10.1h5.4V213.1z M833.8,213.1h-5.4v10.1h5.4V213.1z M776,213.1h-5.4v10.1h5.4V213.1z M947.7,213.1h-5.4v10.1
	h5.4V213.1z M889.9,213.1h-5.4v10.1h5.4V213.1z"/>
<rect x="1053.7" y="213.1" fill="none" stroke="#0E0E0E" stroke-miterlimit="10" width="5.4" height="10.1"/>
<rect x="1001.2" y="213.1" fill="none" stroke="#0E0E0E" stroke-miterlimit="10" width="5.4" height="10.1"/>
<rect x="1032.5" y="213.1" fill="none" stroke="#0E0E0E" stroke-miterlimit="10" width="5.4" height="10.1"/>
<polygon fill="#919293" stroke="#0E0E0E" stroke-miterlimit="10" points="1471.1,486.1 55.8,486.1 130.5,291.1 195.9,291.1 
	228.2,219.3 228.2,177.6 1352.5,177.6 "/>
<polygon fill="#D7D8DB" points="228.2,219.3 195.9,291.1 195.9,26 225.7,72.3 "/>
<polygon fill="#FFFFFF" stroke="#0E0E0E" stroke-miterlimit="10" points="1032.5,213.1 504.1,213.1 504.1,447.7 534.6,447.7 
	534.6,486.1 1001.2,486.1 1001.2,447.7 1032.5,447.7 "/>
<path fill="none" stroke="#0E0E0E" stroke-miterlimit="10" d="M228.2,134.1v85.1l-32.3,71.8h-65l-33,86.2V99.6h102L228.2,134.1z
	 M195.9,291.1V99.6"/>
<polygon fill="none" stroke="#0E0E0E" stroke-miterlimit="10" points="204.2,82.8 87.8,82.8 87.8,90.3 199.9,90.3 237.9,137.7 
	237.9,126.6 "/>
<rect x="504.1" y="213.1" fill="#E6E6EA" width="528.4" height="70"/>
<polygon fill="none" stroke="#0E0E0E" stroke-miterlimit="10" points="199.9,90.3 195.9,90.3 93.2,90.3 93.2,99.3 199.9,99.3 
	233.3,140.6 233.3,132.7 "/>
<polygon fill="none" stroke="#0E0E0E" stroke-miterlimit="10" points="195.9,26 97.5,26 97.5,82.8 204.2,82.8 228.2,113.3 
	225.7,72.3 "/>
<rect x="601.4" y="259.8" fill="#C79F90" width="63.9" height="45.3"/>
<rect x="735.1" y="260.6" fill="#C79F90" width="63.9" height="45.3"/>
<line fill="none" stroke="#0E0E0E" stroke-miterlimit="10" x1="195.9" y1="26" x2="195.9" y2="82.8"/>
<rect x="90.7" y="17" fill="none" stroke="#0E0E0E" stroke-miterlimit="10" width="109.9" height="9"/>
<polygon fill="none" stroke="#0E0E0E" stroke-miterlimit="10" points="200.6,8 90.7,8 90.7,26 200.6,26 231.1,72.3 231.1,54.4 "/>
<line fill="none" stroke="#0E0E0E" stroke-miterlimit="10" x1="200.6" y1="17" x2="231.1" y2="63"/>
<rect x="140.2" y="0.5" fill="none" stroke="#0E0E0E" stroke-miterlimit="10" width="42.4" height="7.5"/>
<rect x="875.9" y="259.8" fill="#C79F90" width="63.9" height="45.3"/>
<path fill="none" stroke="#010101" stroke-miterlimit="10" d="M799.7,329.2h-63.9v-69.3h63.9V329.2z M799.7,336.7h-63.9V406h63.9
	V336.7z M755.9,329.2v-69.3 M778.5,329.2v-69.3 M799.7,294.7h-63.9 M755.9,406v-69.3 M778.5,406v-69.3 M735.4,371.2h64.3
	 M809.4,248.7h-83.7v178.9h83.7V248.7z M822.4,235.8H711.7v203.7h110.6V235.8z M809.4,415.4h-83.7v12.2h83.7V415.4z"/>
<path fill="none" stroke="#010101" stroke-miterlimit="10" d="M940.9,329.2H877v-69.3h63.9V329.2z M940.9,336.7H877V406h63.9V336.7z
	 M897.1,329.2v-69.3 M919.7,329.2v-69.3 M940.9,294.7H877 M897.1,406v-69.3 M919.7,406v-69.3 M876.6,371.2h63.9 M950.6,248.7h-83.7
	v178.9h83.7V248.7z M963.2,235.8H852.5v203.7h110.6V235.8z M950.6,415.4h-83.7v12.2h83.7V415.4z"/>
<rect x="52.2" y="486.1" fill="none" stroke="#0E0E0E" stroke-miterlimit="10" width="1420.3" height="16.9"/>
<polygon fill="none" stroke="#0E0E0E" stroke-miterlimit="10" points="1359.7,196.3 228.2,196.3 228.2,177.6 1352.5,177.6 "/>
<rect x="228.2" y="196.3" fill="none" stroke="#0E0E0E" stroke-miterlimit="10" width="243.2" height="16.9"/>
<polygon fill="none" stroke="#0E0E0E" stroke-miterlimit="10" points="1366.2,213.1 1062.7,213.1 1062.7,196.3 1359.7,196.3 "/>
<polygon fill="none" stroke="#0E0E0E" stroke-miterlimit="10" points="504.1,230 223.2,230 228.2,219.3 228.2,213.1 504.1,213.1 "/>
<polygon fill="none" stroke="#0E0E0E" stroke-miterlimit="10" points="504.1,246.6 216,246.6 223.2,230 504.1,230 "/>
<polygon fill="none" stroke="#0E0E0E" stroke-miterlimit="10" points="504.1,263.4 208.8,263.4 216.4,246.6 504.1,246.6 "/>
<polygon fill="none" stroke="#0E0E0E" stroke-miterlimit="10" points="504.1,280.3 200.6,280.3 208.5,263.4 504.1,263.4 "/>
<polygon fill="none" stroke="#0E0E0E" stroke-miterlimit="10" points="504.1,296.8 128.4,296.8 130.5,291.1 195.9,291.1 
	200.6,280.3 504.1,280.3 "/>
<polygon fill="none" stroke="#0E0E0E" stroke-miterlimit="10" points="504.1,313.7 121.9,313.7 128.4,296.8 504.1,296.8 "/>
<polygon fill="none" stroke="#0E0E0E" stroke-miterlimit="10" points="504.1,330.6 115.4,330.6 121.9,313.7 504.1,313.7 "/>
<polygon fill="none" stroke="#0E0E0E" stroke-miterlimit="10" points="504.1,347.1 109,347.1 115.4,330.6 504.1,330.6 "/>
<polygon fill="none" stroke="#0E0E0E" stroke-miterlimit="10" points="504.1,364 102.5,364 109,347.1 504.1,347.1 "/>
<polygon fill="none" stroke="#0E0E0E" stroke-miterlimit="10" points="504.1,380.9 96.4,380.9 102.5,364 504.1,364 "/>
<polygon fill="none" stroke="#0E0E0E" stroke-miterlimit="10" points="504.1,397.4 89.6,397.4 96.4,380.9 504.1,380.9 "/>
<polygon fill="none" stroke="#0E0E0E" stroke-miterlimit="10" points="504.1,414.3 83.1,414.3 89.6,397.4 504.1,397.4 "/>
<polygon fill="none" stroke="#0E0E0E" stroke-miterlimit="10" points="504.1,431.2 77,431.2 83.1,414.3 504.1,414.3 "/>
<polygon fill="none" stroke="#0E0E0E" stroke-miterlimit="10" points="504.1,447.7 70.2,447.7 77,431.2 504.1,431.2 "/>
<polygon fill="none" stroke="#0E0E0E" stroke-miterlimit="10" points="534.6,464.6 64.4,464.6 70.2,447.7 504.1,447.7 504.1,447.7 
	534.6,447.7 "/>
<polygon fill="none" stroke="#0E0E0E" stroke-miterlimit="10" points="534.6,481.5 57.6,481.5 64.4,464.6 534.6,464.6 "/>
<g>
	<polygon fill="none" stroke="#0E0E0E" stroke-miterlimit="10" points="1032.5,347.1 1417.9,347.1 1411.1,330.6 1032.5,330.6 	"/>
	<polygon fill="none" stroke="#0E0E0E" stroke-miterlimit="10" points="1032.5,364 1424.4,364 1417.9,347.1 1032.5,347.1 	"/>
	<polygon fill="none" stroke="#0E0E0E" stroke-miterlimit="10" points="1032.5,397.4 1436.9,397.4 1430.5,380.9 1032.5,380.9 	"/>
	<polygon fill="none" stroke="#0E0E0E" stroke-miterlimit="10" points="1032.5,431.2 1449.9,431.2 1443.4,414.3 1032.5,414.3 	"/>
	<polygon fill="none" stroke="#0E0E0E" stroke-miterlimit="10" points="1000.9,464.6 1462.8,464.6 1456,447.7 1032.5,447.7 
		1032.5,447.7 1000.9,447.7 	"/>
	<polygon fill="none" stroke="#0E0E0E" stroke-miterlimit="10" points="1000.9,481.5 1469.3,481.5 1462.8,464.6 1000.9,464.6 	"/>
	<polygon fill="none" stroke="#0E0E0E" stroke-miterlimit="10" points="1032.5,380.9 1430.5,380.9 1424.4,364 1032.5,364 	"/>
	<polygon fill="none" stroke="#0E0E0E" stroke-miterlimit="10" points="1032.5,414.3 1443.4,414.3 1436.9,397.4 1032.5,397.4 	"/>
	<polygon fill="none" stroke="#0E0E0E" stroke-miterlimit="10" points="1032.5,447.7 1456,447.7 1449.9,431.2 1032.5,431.2 	"/>
</g>
<polygon fill="none" stroke="#0E0E0E" stroke-miterlimit="10" points="1372.7,230 1032.5,230 1032.5,213.1 1366.2,213.1 "/>
<polygon fill="none" stroke="#0E0E0E" stroke-miterlimit="10" points="1379.1,247.6 1032.5,247.6 1032.5,230 1372.7,230 "/>
<polygon fill="none" stroke="#0E0E0E" stroke-miterlimit="10" points="1385.6,265.6 1032.5,265.6 1032.5,247.6 1379.1,247.6 "/>
<polygon fill="none" stroke="#0E0E0E" stroke-miterlimit="10" points="1392.8,283.2 1032.5,283.2 1032.5,265.6 1385.6,265.6 "/>
<rect x="106.1" y="503" fill="#F0EFEF" stroke="#0E0E0E" stroke-miterlimit="10" width="1325.5" height="663.8"/>
<polygon fill="none" stroke="#0E0E0E" stroke-miterlimit="10" points="1399.2,300.8 1032.5,300.8 1032.5,283.2 1392.8,283.2 "/>
<rect x="1115.5" y="686.2" fill="#C79F90" width="133.6" height="96.3"/>
<rect x="299.4" y="684.8" fill="#C79F90" width="133.6" height="96.3"/>
<polygon fill="none" stroke="#0E0E0E" stroke-miterlimit="10" points="1406.4,318.8 1032.5,318.8 1032.5,300.8 1400,300.8 "/>
<g>
	<rect x="822" y="312.3" fill="none" stroke="#0E0E0E" stroke-miterlimit="10" width="30.5" height="33.4"/>
	<rect x="822" y="345.7" fill="none" stroke="#0E0E0E" stroke-miterlimit="10" width="30.5" height="33.4"/>
	<rect x="822" y="379.1" fill="none" stroke="#0E0E0E" stroke-miterlimit="10" width="30.5" height="33.4"/>
	<rect x="687.7" y="245.1" fill="none" stroke="#0E0E0E" stroke-miterlimit="10" width="23.7" height="33.4"/>
	<rect x="822" y="245.1" fill="none" stroke="#0E0E0E" stroke-miterlimit="10" width="30.5" height="33.4"/>
	<rect x="822" y="278.5" fill="none" stroke="#0E0E0E" stroke-miterlimit="10" width="30.5" height="33.4"/>
	<rect x="687.7" y="379.1" fill="none" stroke="#0E0E0E" stroke-miterlimit="10" width="23.7" height="33.4"/>
	<rect x="521" y="245.1" fill="none" stroke="#0E0E0E" stroke-miterlimit="10" width="56" height="33.4"/>
	<rect x="687.7" y="312.3" fill="none" stroke="#0E0E0E" stroke-miterlimit="10" width="23.7" height="33.4"/>
	<rect x="687.7" y="278.5" fill="none" stroke="#0E0E0E" stroke-miterlimit="10" width="23.7" height="33.4"/>
	<rect x="687.7" y="345.7" fill="none" stroke="#0E0E0E" stroke-miterlimit="10" width="23.7" height="33.4"/>
	<rect x="521" y="278.5" fill="none" stroke="#0E0E0E" stroke-miterlimit="10" width="56" height="33.4"/>
	<rect x="963.2" y="278.5" fill="none" stroke="#0E0E0E" stroke-miterlimit="10" width="52.4" height="33.4"/>
	<rect x="963.2" y="312.3" fill="none" stroke="#0E0E0E" stroke-miterlimit="10" width="52.4" height="33.4"/>
	<rect x="963.2" y="245.1" fill="none" stroke="#0E0E0E" stroke-miterlimit="10" width="52.4" height="33.4"/>
	<rect x="963.2" y="345.7" fill="none" stroke="#0E0E0E" stroke-miterlimit="10" width="52.4" height="33.4"/>
	<polygon fill="none" stroke="#0E0E0E" stroke-miterlimit="10" points="521,211.7 521,245.1 577.4,245.1 577.4,235.4 687.7,235.4 
		687.7,245.1 711.4,245.1 711.4,235.4 822,235.4 822,245.1 852.5,245.1 852.5,235.4 963.2,235.4 963.2,245.1 1015.6,245.1 
		1015.6,211.7 	"/>
	<rect x="963.2" y="379.1" fill="none" stroke="#0E0E0E" stroke-miterlimit="10" width="52.4" height="33.4"/>
	<rect x="521" y="379.1" fill="none" stroke="#0E0E0E" stroke-miterlimit="10" width="56" height="33.4"/>
	<rect x="521" y="312.3" fill="none" stroke="#0E0E0E" stroke-miterlimit="10" width="56" height="33.4"/>
	<rect x="521" y="345.7" fill="none" stroke="#0E0E0E" stroke-miterlimit="10" width="56" height="33.4"/>
	<polygon fill="none" stroke="#0E0E0E" stroke-miterlimit="10" points="963.2,439.1 852.5,439.1 852.5,412.9 822,412.9 822,439.1 
		711.4,439.1 711.4,412.9 687.7,412.9 687.7,439.1 577.4,439.1 577.4,412.9 521,412.9 521.3,429.4 550.1,429.4 550.1,447 
		984.7,446.3 984.7,429.7 1016,429.7 1015.6,412.9 963.2,412.9 	"/>
</g>
<rect x="107.9" y="1116.9" fill="#48444A" stroke="#030303" stroke-miterlimit="10" width="1321.9" height="48.5"/>
<polygon fill="none" stroke="#0E0E0E" stroke-miterlimit="10" points="521.3,213.1 521.3,429.4 550.1,429.4 550.1,429.7 550.1,447 
	550.1,462.8 550.1,471.8 984.7,471.8 984.7,429.7 1016,429.7 1016,213.1 "/>
<path fill="none" stroke="#010101" stroke-miterlimit="10" d="M433,814.1H299.4V684.8H433V814.1z M433,828.1H299.4v129.3H433V828.1z
	 M342.1,814.1V684.8 M389.2,814.1V684.8 M433,749.4H299.4 M342.1,957.4V828.1 M389.2,957.4V828.1 M299.4,892.8H433 M453.5,663.6
	H279.2v334.1h174.2V663.6z M480,639.9H249.4v380.4H480V639.9z M453.5,975H279.2v23h174.2V975z"/>
<path fill="none" stroke="#010101" stroke-miterlimit="10" d="M1250.5,814.1h-133.6V684.8h133.6V814.1z M1250.5,828.1h-133.6v129.3
	h133.6V828.1z M1159.3,814.1V684.8 M1206.3,814.1V684.8 M1250.5,749.4h-133.6 M1159.3,957.4V828.1 M1206.3,957.4V828.1
	 M1116.9,892.8h133.6 M1270.6,663.6h-174.2v334.1h174.2V663.6z M1297.2,639.9h-230.6v380.4h230.6V639.9z M1270.6,975h-174.2v23
	h174.2V975z"/>
<rect x="175.4" y="650.3" fill="#797C83" stroke="#030303" stroke-miterlimit="10" width="74.4" height="353.5"/>
<line fill="none" stroke="#010101" stroke-miterlimit="10" x1="175.4" y1="661.4" x2="249.4" y2="661.4"/>
<line fill="none" stroke="#010101" stroke-miterlimit="10" x1="175.4" y1="672.9" x2="249.4" y2="672.9"/>
<line fill="none" stroke="#010101" stroke-miterlimit="10" x1="175.4" y1="683.7" x2="249.4" y2="683.7"/>
<line fill="none" stroke="#010101" stroke-miterlimit="10" x1="249.4" y1="694.8" x2="175.4" y2="694.8"/>
<line fill="none" stroke="#010101" stroke-miterlimit="10" x1="175.4" y1="705.6" x2="249.4" y2="705.6"/>
<line fill="none" stroke="#010101" stroke-miterlimit="10" x1="249.4" y1="716.7" x2="175.4" y2="716.7"/>
<line fill="none" stroke="#010101" stroke-miterlimit="10" x1="249.4" y1="727.5" x2="175.4" y2="727.5"/>
<line fill="none" stroke="#010101" stroke-miterlimit="10" x1="175.4" y1="738.7" x2="249.4" y2="738.7"/>
<line fill="none" stroke="#010101" stroke-miterlimit="10" x1="175.4" y1="749.8" x2="249.4" y2="749.8"/>
<line fill="none" stroke="#010101" stroke-miterlimit="10" x1="175.4" y1="761.3" x2="249.4" y2="761.3"/>
<line fill="none" stroke="#010101" stroke-miterlimit="10" x1="175.4" y1="772.1" x2="249.4" y2="772.1"/>
<line fill="none" stroke="#010101" stroke-miterlimit="10" x1="249.4" y1="783.2" x2="175.4" y2="783.2"/>
<line fill="none" stroke="#010101" stroke-miterlimit="10" x1="175.4" y1="794" x2="249.4" y2="794"/>
<line fill="none" stroke="#010101" stroke-miterlimit="10" x1="249.4" y1="805.1" x2="175.4" y2="805.1"/>
<line fill="none" stroke="#010101" stroke-miterlimit="10" x1="249.4" y1="815.9" x2="175.4" y2="815.9"/>
<line fill="none" stroke="#010101" stroke-miterlimit="10" x1="175.4" y1="827" x2="249.4" y2="827"/>
<line fill="none" stroke="#010101" stroke-miterlimit="10" x1="175.4" y1="838.9" x2="249.4" y2="838.9"/>
<line fill="none" stroke="#010101" stroke-miterlimit="10" x1="249.4" y1="850" x2="175.4" y2="850"/>
<line fill="none" stroke="#010101" stroke-miterlimit="10" x1="249.4" y1="860.8" x2="175.4" y2="860.8"/>
<line fill="none" stroke="#010101" stroke-miterlimit="10" x1="175.4" y1="872.3" x2="249.4" y2="872.3"/>
<line fill="none" stroke="#010101" stroke-miterlimit="10" x1="175.4" y1="883.4" x2="249.4" y2="883.4"/>
<line fill="none" stroke="#010101" stroke-miterlimit="10" x1="175.4" y1="894.6" x2="249.4" y2="894.6"/>
<line fill="none" stroke="#010101" stroke-miterlimit="10" x1="175.4" y1="905.3" x2="249.4" y2="905.3"/>
<line fill="none" stroke="#010101" stroke-miterlimit="10" x1="249.4" y1="916.5" x2="175.4" y2="916.5"/>
<line fill="none" stroke="#010101" stroke-miterlimit="10" x1="175.4" y1="927.2" x2="249.4" y2="927.2"/>
<line fill="none" stroke="#010101" stroke-miterlimit="10" x1="249.4" y1="938.4" x2="175.4" y2="938.4"/>
<line fill="none" stroke="#010101" stroke-miterlimit="10" x1="249.4" y1="949.2" x2="175.4" y2="949.2"/>
<line fill="none" stroke="#010101" stroke-miterlimit="10" x1="175.4" y1="960.6" x2="249.4" y2="960.6"/>
<line fill="none" stroke="#010101" stroke-miterlimit="10" x1="175.4" y1="970.7" x2="249.4" y2="970.7"/>
<line fill="none" stroke="#010101" stroke-miterlimit="10" x1="249.4" y1="981.8" x2="175.4" y2="981.8"/>
<line fill="none" stroke="#010101" stroke-miterlimit="10" x1="249.4" y1="992.6" x2="175.4" y2="992.6"/>
<line fill="none" stroke="#010101" stroke-miterlimit="10" x1="175.4" y1="1003.8" x2="249.4" y2="1003.8"/>
<rect x="480" y="650.3" fill="#797C83" stroke="#030303" stroke-miterlimit="10" width="74.4" height="353.5"/>
<line fill="none" stroke="#010101" stroke-miterlimit="10" x1="480" y1="661.4" x2="554.4" y2="661.4"/>
<line fill="none" stroke="#010101" stroke-miterlimit="10" x1="480" y1="672.9" x2="554.4" y2="672.9"/>
<line fill="none" stroke="#010101" stroke-miterlimit="10" x1="480" y1="683.7" x2="554.4" y2="683.7"/>
<line fill="none" stroke="#010101" stroke-miterlimit="10" x1="554.4" y1="694.8" x2="480" y2="694.8"/>
<line fill="none" stroke="#010101" stroke-miterlimit="10" x1="480" y1="705.6" x2="554.4" y2="705.6"/>
<line fill="none" stroke="#010101" stroke-miterlimit="10" x1="554.4" y1="716.7" x2="480" y2="716.7"/>
<line fill="none" stroke="#010101" stroke-miterlimit="10" x1="554.4" y1="727.5" x2="480" y2="727.5"/>
<line fill="none" stroke="#010101" stroke-miterlimit="10" x1="480" y1="738.7" x2="554.4" y2="738.7"/>
<line fill="none" stroke="#010101" stroke-miterlimit="10" x1="480" y1="749.8" x2="554.4" y2="749.8"/>
<line fill="none" stroke="#010101" stroke-miterlimit="10" x1="480" y1="761.3" x2="554.4" y2="761.3"/>
<line fill="none" stroke="#010101" stroke-miterlimit="10" x1="480" y1="772.1" x2="554.4" y2="772.1"/>
<line fill="none" stroke="#010101" stroke-miterlimit="10" x1="554.4" y1="783.2" x2="480" y2="783.2"/>
<line fill="none" stroke="#010101" stroke-miterlimit="10" x1="480" y1="794" x2="554.4" y2="794"/>
<line fill="none" stroke="#010101" stroke-miterlimit="10" x1="554.4" y1="805.1" x2="480" y2="805.1"/>
<line fill="none" stroke="#010101" stroke-miterlimit="10" x1="554.4" y1="815.9" x2="480" y2="815.9"/>
<line fill="none" stroke="#010101" stroke-miterlimit="10" x1="480" y1="827" x2="554.4" y2="827"/>
<line fill="none" stroke="#010101" stroke-miterlimit="10" x1="480" y1="838.9" x2="554.4" y2="838.9"/>
<line fill="none" stroke="#010101" stroke-miterlimit="10" x1="554.4" y1="850" x2="480" y2="850"/>
<line fill="none" stroke="#010101" stroke-miterlimit="10" x1="554.4" y1="860.8" x2="480" y2="860.8"/>
<line fill="none" stroke="#010101" stroke-miterlimit="10" x1="480" y1="872.3" x2="554.4" y2="872.3"/>
<line fill="none" stroke="#010101" stroke-miterlimit="10" x1="480" y1="883.4" x2="554.4" y2="883.4"/>
<line fill="none" stroke="#010101" stroke-miterlimit="10" x1="480" y1="894.6" x2="554.4" y2="894.6"/>
<line fill="none" stroke="#010101" stroke-miterlimit="10" x1="480" y1="905.3" x2="554.4" y2="905.3"/>
<line fill="none" stroke="#010101" stroke-miterlimit="10" x1="554.4" y1="916.5" x2="480" y2="916.5"/>
<line fill="none" stroke="#010101" stroke-miterlimit="10" x1="480" y1="927.2" x2="554.4" y2="927.2"/>
<line fill="none" stroke="#010101" stroke-miterlimit="10" x1="554.4" y1="938.4" x2="480" y2="938.4"/>
<line fill="none" stroke="#010101" stroke-miterlimit="10" x1="554.4" y1="949.2" x2="480" y2="949.2"/>
<line fill="none" stroke="#010101" stroke-miterlimit="10" x1="480" y1="960.6" x2="554.4" y2="960.6"/>
<line fill="none" stroke="#010101" stroke-miterlimit="10" x1="480" y1="970.7" x2="554.4" y2="970.7"/>
<line fill="none" stroke="#010101" stroke-miterlimit="10" x1="554.4" y1="981.8" x2="480" y2="981.8"/>
<line fill="none" stroke="#010101" stroke-miterlimit="10" x1="554.4" y1="992.6" x2="480" y2="992.6"/>
<line fill="none" stroke="#010101" stroke-miterlimit="10" x1="480" y1="1003.8" x2="554.4" y2="1003.8"/>
<rect x="992.6" y="653.9" fill="#797C83" stroke="#030303" stroke-miterlimit="10" width="74.4" height="353.5"/>
<line fill="none" stroke="#010101" stroke-miterlimit="10" x1="992.6" y1="665" x2="1067" y2="665"/>
<line fill="none" stroke="#010101" stroke-miterlimit="10" x1="992.6" y1="676.5" x2="1067" y2="676.5"/>
<line fill="none" stroke="#010101" stroke-miterlimit="10" x1="992.6" y1="687.3" x2="1067" y2="687.3"/>
<line fill="none" stroke="#010101" stroke-miterlimit="10" x1="1067" y1="698.4" x2="992.6" y2="698.4"/>
<line fill="none" stroke="#010101" stroke-miterlimit="10" x1="992.6" y1="709.2" x2="1067" y2="709.2"/>
<line fill="none" stroke="#010101" stroke-miterlimit="10" x1="1067" y1="720.3" x2="992.6" y2="720.3"/>
<line fill="none" stroke="#010101" stroke-miterlimit="10" x1="1067" y1="731.1" x2="992.6" y2="731.1"/>
<line fill="none" stroke="#010101" stroke-miterlimit="10" x1="992.6" y1="742.3" x2="1067" y2="742.3"/>
<line fill="none" stroke="#010101" stroke-miterlimit="10" x1="992.6" y1="753.4" x2="1067" y2="753.4"/>
<line fill="none" stroke="#010101" stroke-miterlimit="10" x1="992.6" y1="764.9" x2="1067" y2="764.9"/>
<line fill="none" stroke="#010101" stroke-miterlimit="10" x1="992.6" y1="775.7" x2="1067" y2="775.7"/>
<line fill="none" stroke="#010101" stroke-miterlimit="10" x1="1067" y1="786.8" x2="992.6" y2="786.8"/>
<line fill="none" stroke="#010101" stroke-miterlimit="10" x1="992.6" y1="797.6" x2="1067" y2="797.6"/>
<rect x="108.3" y="505.2" fill="#D7D8DB" width="1321.1" height="131.8"/>
<line fill="none" stroke="#010101" stroke-miterlimit="10" x1="1067" y1="808.7" x2="992.6" y2="808.7"/>
<line fill="none" stroke="#010101" stroke-miterlimit="10" x1="1067" y1="819.5" x2="992.6" y2="819.5"/>
<line fill="none" stroke="#010101" stroke-miterlimit="10" x1="992.6" y1="830.6" x2="1067" y2="830.6"/>
<line fill="none" stroke="#010101" stroke-miterlimit="10" x1="992.6" y1="842.5" x2="1067" y2="842.5"/>
<line fill="none" stroke="#010101" stroke-miterlimit="10" x1="1067" y1="853.6" x2="992.6" y2="853.6"/>
<line fill="none" stroke="#010101" stroke-miterlimit="10" x1="1067" y1="864.4" x2="992.6" y2="864.4"/>
<line fill="none" stroke="#010101" stroke-miterlimit="10" x1="992.6" y1="875.9" x2="1067" y2="875.9"/>
<line fill="none" stroke="#010101" stroke-miterlimit="10" x1="992.6" y1="887" x2="1067" y2="887"/>
<line fill="none" stroke="#010101" stroke-miterlimit="10" x1="992.6" y1="898.1" x2="1067" y2="898.1"/>
<line fill="none" stroke="#010101" stroke-miterlimit="10" x1="992.6" y1="908.9" x2="1067" y2="908.9"/>
<line fill="none" stroke="#010101" stroke-miterlimit="10" x1="1067" y1="920.1" x2="992.6" y2="920.1"/>
<line fill="none" stroke="#010101" stroke-miterlimit="10" x1="992.6" y1="930.8" x2="1067" y2="930.8"/>
<line fill="none" stroke="#010101" stroke-miterlimit="10" x1="1067" y1="942" x2="992.6" y2="942"/>
<line fill="none" stroke="#010101" stroke-miterlimit="10" x1="1067" y1="952.7" x2="992.6" y2="952.7"/>
<line fill="none" stroke="#010101" stroke-miterlimit="10" x1="992.6" y1="964.2" x2="1067" y2="964.2"/>
<line fill="none" stroke="#010101" stroke-miterlimit="10" x1="992.6" y1="974.3" x2="1067" y2="974.3"/>
<line fill="none" stroke="#010101" stroke-miterlimit="10" x1="1067" y1="985.4" x2="992.6" y2="985.4"/>
<line fill="none" stroke="#010101" stroke-miterlimit="10" x1="1067" y1="996.2" x2="992.6" y2="996.2"/>
<line fill="none" stroke="#010101" stroke-miterlimit="10" x1="992.6" y1="1007.3" x2="1067" y2="1007.3"/>
<rect x="1297.2" y="653.9" fill="#797C83" stroke="#030303" stroke-miterlimit="10" width="74.4" height="353.5"/>
<line fill="none" stroke="#010101" stroke-miterlimit="10" x1="1297.2" y1="665" x2="1371.6" y2="665"/>
<line fill="none" stroke="#010101" stroke-miterlimit="10" x1="1297.2" y1="676.5" x2="1371.6" y2="676.5"/>
<line fill="none" stroke="#010101" stroke-miterlimit="10" x1="1297.2" y1="687.3" x2="1371.6" y2="687.3"/>
<line fill="none" stroke="#010101" stroke-miterlimit="10" x1="1371.6" y1="698.4" x2="1297.2" y2="698.4"/>
<line fill="none" stroke="#010101" stroke-miterlimit="10" x1="1297.2" y1="709.2" x2="1371.6" y2="709.2"/>
<line fill="none" stroke="#010101" stroke-miterlimit="10" x1="1371.6" y1="720.3" x2="1297.2" y2="720.3"/>
<line fill="none" stroke="#010101" stroke-miterlimit="10" x1="1371.6" y1="731.1" x2="1297.2" y2="731.1"/>
<line fill="none" stroke="#010101" stroke-miterlimit="10" x1="1297.2" y1="742.3" x2="1371.6" y2="742.3"/>
<line fill="none" stroke="#010101" stroke-miterlimit="10" x1="1297.2" y1="753.4" x2="1371.6" y2="753.4"/>
<line fill="none" stroke="#010101" stroke-miterlimit="10" x1="1297.2" y1="764.9" x2="1371.6" y2="764.9"/>
<line fill="none" stroke="#010101" stroke-miterlimit="10" x1="1297.2" y1="775.7" x2="1371.6" y2="775.7"/>
<line fill="none" stroke="#010101" stroke-miterlimit="10" x1="1371.6" y1="786.8" x2="1297.2" y2="786.8"/>
<line fill="none" stroke="#010101" stroke-miterlimit="10" x1="1297.2" y1="797.6" x2="1371.6" y2="797.6"/>
<line fill="none" stroke="#010101" stroke-miterlimit="10" x1="1371.6" y1="808.7" x2="1297.2" y2="808.7"/>
<line fill="none" stroke="#010101" stroke-miterlimit="10" x1="1371.6" y1="819.5" x2="1297.2" y2="819.5"/>
<line fill="none" stroke="#010101" stroke-miterlimit="10" x1="1297.2" y1="830.6" x2="1371.6" y2="830.6"/>
<line fill="none" stroke="#010101" stroke-miterlimit="10" x1="1297.2" y1="842.5" x2="1371.6" y2="842.5"/>
<line fill="none" stroke="#010101" stroke-miterlimit="10" x1="1371.6" y1="853.6" x2="1297.2" y2="853.6"/>
<line fill="none" stroke="#010101" stroke-miterlimit="10" x1="1371.6" y1="864.4" x2="1297.2" y2="864.4"/>
<line fill="none" stroke="#010101" stroke-miterlimit="10" x1="1297.2" y1="875.9" x2="1371.6" y2="875.9"/>
<line fill="none" stroke="#010101" stroke-miterlimit="10" x1="1297.2" y1="887" x2="1371.6" y2="887"/>
<line fill="none" stroke="#010101" stroke-miterlimit="10" x1="1297.2" y1="898.1" x2="1371.6" y2="898.1"/>
<line fill="none" stroke="#010101" stroke-miterlimit="10" x1="1297.2" y1="908.9" x2="1371.6" y2="908.9"/>
<line fill="none" stroke="#010101" stroke-miterlimit="10" x1="1371.6" y1="920.1" x2="1297.2" y2="920.1"/>
<line fill="none" stroke="#010101" stroke-miterlimit="10" x1="1297.2" y1="930.8" x2="1371.6" y2="930.8"/>
<line fill="none" stroke="#010101" stroke-miterlimit="10" x1="1371.6" y1="942" x2="1297.2" y2="942"/>
<line fill="none" stroke="#010101" stroke-miterlimit="10" x1="1371.6" y1="952.7" x2="1297.2" y2="952.7"/>
<line fill="none" stroke="#010101" stroke-miterlimit="10" x1="1297.2" y1="964.2" x2="1371.6" y2="964.2"/>
<line fill="none" stroke="#010101" stroke-miterlimit="10" x1="1297.2" y1="974.3" x2="1371.6" y2="974.3"/>
<line fill="none" stroke="#010101" stroke-miterlimit="10" x1="1371.6" y1="985.4" x2="1297.2" y2="985.4"/>
<line fill="none" stroke="#010101" stroke-miterlimit="10" x1="1371.6" y1="996.2" x2="1297.2" y2="996.2"/>
<line fill="none" stroke="#010101" stroke-miterlimit="10" x1="1297.2" y1="1007.3" x2="1371.6" y2="1007.3"/>
<rect x="106.1" y="503" fill="none" stroke="#010101" stroke-miterlimit="10" width="1325.5" height="44.5"/>
<polygon fill="#232323" points="553.7,517 1014.9,517 1549.4,549.4 2.3,549.4 "/>
<rect x="0.5" y="549.4" fill="none" stroke="#010101" stroke-miterlimit="10" width="1548.9" height="10.8"/>
<path fill="none" stroke="#0E0E0E" stroke-miterlimit="10" d="M5.9,570.2H0.5v-10.1h5.4V570.2z M121.6,560.1h-5.4v10.1h5.4V560.1z
	 M63.7,560.1h-5.4v10.1h5.4V560.1z M236.1,560.1h-5.4v10.1h5.4V560.1z M178.3,560.1h-5.4v10.1h5.4V560.1z M350,560.1h-5.4v10.1h5.4
	V560.1z M292.2,560.1h-5.4v10.1h5.4V560.1z"/>
<path fill="none" stroke="#0E0E0E" stroke-miterlimit="10" d="M407.8,570.2h-5.4v-10.1h5.4V570.2z M523.5,560.1h-5.4v10.1h5.4V560.1
	z M465.7,560.1h-5.4v10.1h5.4V560.1z M638.1,560.1h-5.4v10.1h5.4V560.1z M580.3,560.1h-5.4v10.1h5.4V560.1z M752,560.1h-5.4v10.1
	h5.4V560.1z M694.1,560.1h-5.4v10.1h5.4V560.1z"/>
<path fill="none" stroke="#0E0E0E" stroke-miterlimit="10" d="M808,570.2h-5.4v-10.1h5.4V570.2z M924,560.1h-5.4v10.1h5.4V560.1z
	 M865.8,560.1h-5.4v10.1h5.4V560.1z M1038.6,560.1h-5.4v10.1h5.4V560.1z M980.8,560.1h-5.4v10.1h5.4V560.1z M1152.5,560.1h-5.4v10.1
	h5.4V560.1z M1094.6,560.1h-5.4v10.1h5.4V560.1z"/>
<path fill="none" stroke="#0E0E0E" stroke-miterlimit="10" d="M1203.1,570.2h-5.4v-10.1h5.4V570.2z M1318.8,560.1h-5.4v10.1h5.4
	V560.1z M1260.9,560.1h-5.4v10.1h5.4V560.1z M1433.7,560.1h-5.4v10.1h5.4V560.1z M1375.5,560.1h-5.4v10.1h5.4V560.1z M1547.2,560.1
	h-5.4v10.1h5.4V560.1z M1489.4,560.1h-5.4v10.1h5.4V560.1z"/>
<rect x="615.5" y="621.9" fill="#FFFFFF" stroke="#010101" stroke-miterlimit="10" width="315" height="441.5"/>
<rect x="641" y="639.9" fill="none" stroke="#010101" stroke-miterlimit="10" width="270.1" height="405.2"/>
<rect x="661.8" y="763.1" fill="none" stroke="#010101" stroke-miterlimit="10" width="30.2" height="245.3"/>
<line fill="none" stroke="#010101" stroke-miterlimit="10" x1="661.8" y1="804.4" x2="692" y2="804.4"/>
<line fill="none" stroke="#010101" stroke-miterlimit="10" x1="692" y1="853.6" x2="661.8" y2="853.6"/>
<rect x="656.8" y="661.1" fill="#C79F90" width="238.2" height="34.1"/>
<line fill="none" stroke="#010101" stroke-miterlimit="10" x1="661.8" y1="907.5" x2="692" y2="907.5"/>
<line fill="none" stroke="#010101" stroke-miterlimit="10" x1="692" y1="956.3" x2="661.8" y2="956.3"/>
<rect x="859.7" y="763.1" fill="none" stroke="#010101" stroke-miterlimit="10" width="30.2" height="245.3"/>
<line fill="none" stroke="#010101" stroke-miterlimit="10" x1="859.7" y1="804.4" x2="890.2" y2="804.4"/>
<line fill="none" stroke="#010101" stroke-miterlimit="10" x1="890.2" y1="853.6" x2="859.7" y2="853.6"/>
<line fill="none" stroke="#010101" stroke-miterlimit="10" x1="859.7" y1="907.5" x2="890.2" y2="907.5"/>
<line fill="none" stroke="#010101" stroke-miterlimit="10" x1="890.2" y1="956.3" x2="859.7" y2="956.3"/>
<rect x="711.7" y="741.5" fill="#37393E" stroke="#030303" stroke-miterlimit="10" width="128.2" height="303.2"/>
<rect x="658.6" y="662.1" fill="none" stroke="#010101" stroke-miterlimit="10" width="234.2" height="63.6"/>
<line fill="none" stroke="#010101" stroke-miterlimit="10" x1="702.7" y1="662.1" x2="702.7" y2="725.7"/>
<line fill="none" stroke="#010101" stroke-miterlimit="10" x1="751.6" y1="662.1" x2="751.6" y2="725.7"/>
<line fill="none" stroke="#010101" stroke-miterlimit="10" x1="800.1" y1="662.1" x2="800.1" y2="725.7"/>
<line fill="none" stroke="#010101" stroke-miterlimit="10" x1="849.3" y1="662.1" x2="849.3" y2="725.7"/>
<rect x="499.8" y="1072.7" fill="#FFFFFF" stroke="#010101" stroke-miterlimit="10" width="33" height="201.9"/>
<rect x="1018.8" y="1072.7" fill="#FFFFFF" stroke="#010101" stroke-miterlimit="10" width="33" height="201.9"/>
<rect x="532.8" y="1083.5" fill="none" stroke="#010101" stroke-miterlimit="10" width="485.6" height="25.1"/>
<rect x="532.8" y="1108.6" fill="#E7E7E7" stroke="#010101" stroke-miterlimit="10" width="485.6" height="33"/>
<rect x="532.8" y="1142" fill="#E7E7E7" stroke="#010101" stroke-miterlimit="10" width="485.6" height="33"/>
<rect x="532.8" y="1175.1" fill="#E7E7E7" stroke="#010101" stroke-miterlimit="10" width="485.6" height="33"/>
<rect x="532.8" y="1208.5" fill="#E7E7E7" stroke="#010101" stroke-miterlimit="10" width="485.6" height="33"/>
<rect x="532.8" y="1241.5" fill="#E7E7E7" stroke="#010101" stroke-miterlimit="10" width="485.6" height="33"/>
<rect x="106.1" y="1063" fill="#010101" width="1324.7" height="19.4"/>
<path fill="#FFFFFF" stroke="#010101" stroke-miterlimit="10" d="M544.3,570.2h-52.8v-10.1h52.8V570.2z M545.4,614.7h-52.8v10.1
	h52.8V614.7z M538.2,614.7v-44.5h6.1v-10.1h-6.1h-38.4h-8.3v10.1h8.3v44.5h-7.2v10.1h7.2v447.9h38.4V625.2h7.2v-10.1h-7.2V614.7z"/>
<rect x="152.1" y="1020.3" fill="none" stroke="#010101" stroke-miterlimit="10" width="347" height="15.4"/>
<path fill="#FFFFFF" stroke="#010101" stroke-miterlimit="10" d="M1058.3,570.2h-52.8v-10.1h52.8V570.2z M1059.4,614.7h-52.8v10.1
	h52.8V614.7z M1052.2,614.7v-44.5h6.1v-10.1h-6.1h-38.4h-8.3v10.1h8.3v44.5h-7.2v10.1h7.2v447.9h38.4V625.2h7.2v-10.1h-7.2V614.7z"
	/>
<path fill="#FFFFFF" stroke="#010101" stroke-miterlimit="10" d="M158.5,570.2h-52.8v-10.1h52.8V570.2z M160,614.7h-52.8v10.1H160
	V614.7z M152.8,614.7v-44.5h6.1v-10.1h-6.1h-38.4h-8.3v10.1h8.3v44.5h-7.2v10.1h7.2v447.9h38.4V625.2h7.2v-10.1h-7.2V614.7z"/>
<rect x="152.8" y="888.4" fill="#010101" width="345.9" height="16.5"/>
<path fill="none" stroke="#010101" stroke-miterlimit="10" d="M267.7,1020.6H152.8V905.3h114.9V1020.6z M160.7,905.3l107,108.5
	 M152.8,1013.8l109.9-108.5 M267.7,928.3l-42,43.1 M267.7,956l-28.4,29.1 M267.7,985.1l-14.4,14.4 M195.9,971.4l48.9,49.2
	 M214.2,1020.6l-33.8-34.1 M188.7,1020.6l-21.2-21.2 M188.7,905.3l37,36.6 M239,928.3l-24.8-23 M251.2,916.8l-11.9-11.5
	 M152.8,986.5l44.5-44.2 M183.3,928.3l-30.5,31.6 M152.8,932.3l17.6-17.6"/>
<path fill="none" stroke="#010101" stroke-miterlimit="10" d="M383.8,1020.6H268.8V905.3h114.9V1020.6z M276.7,905.3l107,108.5
	 M268.8,1013.8l109.9-108.5 M383.8,928.3l-42,43.1 M383.8,956l-28.4,29.1 M383.8,985.1l-14.4,14.4 M311.9,971.4l48.9,49.2
	 M330.2,1020.6l-33.8-34.1 M304.7,1020.6l-21.2-21.2 M304.7,905.3l37,36.6 M355.4,928.3l-24.8-23 M367.2,916.8l-11.9-11.5
	 M268.8,986.5l44.5-44.2 M299.4,928.3l-30.5,31.6 M268.8,932.3l17.6-17.6"/>
<rect x="1051.5" y="1020.3" fill="none" stroke="#010101" stroke-miterlimit="10" width="347" height="15.4"/>
<path fill="none" stroke="#010101" stroke-miterlimit="10" d="M498.7,1020.6H383.8V905.3h114.9V1020.6z M391.7,905.3l107,108.5
	 M383.8,1013.8l109.9-108.5 M498.7,928.3l-42,43.1 M498.7,956l-28.4,29.1 M498.7,985.1l-14.4,14.4 M426.9,971.4l48.9,49.2
	 M445.2,1020.6l-33.8-34.1 M419.7,1020.6l-21.2-21.2 M419.7,905.3l37,36.6 M470.3,928.3l-24.8-23 M482.2,916.8l-11.9-11.5
	 M383.8,986.5l44.5-44.2 M414.3,928.3l-30.5,31.6 M383.8,932.3l17.6-17.6"/>
<path fill="none" stroke="#010101" stroke-miterlimit="10" d="M1166.8,1020.6h-114.9V905.3h114.9V1020.6z M1166.8,1013.8l-107-108.5
	 M1162.2,905.3l-110.3,108.5 M1166.8,928.3l-42,43.1 M1166.8,956l-28.4,29.1 M1166.8,985.1l-14.4,14.4 M1144.2,1020.6l-48.9-49.2
	 M1113.7,1020.6l-33.8-34.1 M1087.8,1020.6l-21.2-21.2 M1087.8,905.3l37,36.6 M1113.7,905.3l24.8,23 M1138.5,905.3l11.9,11.5
	 M1096.8,942.3l-44.5,44.2 M1051.9,959.6l30.5-31.6 M1051.9,932.3l17.6-17.6 M1283.2,1020.6h-114.9V905.3h114.9V1020.6z
	 M1283.2,1013.8l-107-108.5 M1168.3,1013.8l109.9-108.5 M1283.2,928.3l-42,43.1 M1254.5,985.1l28.4-29.1 M1283.2,985.1l-14.4,14.4
	 M1211.4,971.4l48.9,49.2 M1229.7,1020.6l-33.8-34.1 M1204.2,1020.6l-21.2-21.2 M1204.2,905.3l37,36.6 M1254.5,928.3l-24.8-23
	 M1266.7,916.8l-11.9-11.5 M1168.3,986.5l44.5-44.2 M1168.3,959.6l30.5-31.6 M1168.3,932.3l17.6-17.6 M1398.2,1020.6h-114.9V905.3
	h114.9V1020.6z M1398.2,1013.8l-107-108.5 M1393.1,905.3l-109.9,108.5 M1356.1,971.4l42-43.1 M1369.4,985.1l28.4-29.1 M1383.8,999.4
	l14.4-14.4 M1375.2,1020.6l-48.9-49.2 M1310.9,986.5l33.8,34.1 M1319.1,1020.6l-21.2-21.2 M1356.1,941.6l-37-36.6 M1369.4,928.3
	l-24.8-23 M1369.4,905.3l11.9,11.5 M1327.8,942.3l-44.5,44.2 M1283.2,959.6l30.5-31.6 M1283.2,932.3l17.6-17.6"/>
<rect x="1054.4" y="888.4" fill="#010101" width="345.9" height="16.5"/>
<path fill="#FFFFFF" stroke="#010101" stroke-miterlimit="10" d="M1429.8,570.2H1377v-10.1h52.8V570.2z M1430.8,614.7H1378v10.1
	h52.8V614.7z M1423.7,614.7v-44.5h6.1v-10.1h-6.1h-38.4h-8.3v10.1h8.3v44.5h-7.2v10.1h7.2v447.9h38.4V625.2h7.2v-10.1h-7.2V614.7z"
	/>
<path fill="none" stroke="#0E0E0E" stroke-miterlimit="10" d="M111.5,511.3h-5.4v-5.7h5.4V511.3z M227.2,505.5h-5.4v5.7h5.4V505.5z
	 M169.3,505.5h-5.4v5.7h5.4V505.5z M341.7,505.5h-5.4v5.7h5.4V505.5z M283.9,505.5h-5.4v5.7h5.4V505.5z M455.6,505.5h-5.4v5.7h5.4
	V505.5z M397.8,505.5h-5.4v5.7h5.4V505.5z"/>
<rect x="1038.6" y="1082.4" fill="none" stroke="#010101" stroke-miterlimit="10" width="392.6" height="34.1"/>
<path fill="none" stroke="#0E0E0E" stroke-miterlimit="10" d="M509.5,511.3h-5.4v-5.7h5.4V511.3z"/>
<path fill="none" stroke="#0E0E0E" stroke-miterlimit="10" d="M1029.3,505.5h-5.4v5.7h5.4V505.5z M1143.8,505.5h-5.4v5.7h5.4V505.5z
	 M1086,505.5h-5.4v5.7h5.4V505.5z M1257.7,505.5h-5.4v5.7h5.4V505.5z M1199.9,505.5h-5.4v5.7h5.4V505.5z"/>
<path fill="none" stroke="#0E0E0E" stroke-miterlimit="10" d="M1312.3,511.3h-5.4v-5.7h5.4V511.3z M1428,505.5h-5.4v5.7h5.4V505.5z
	 M1370.1,505.5h-5.4v5.7h5.4V505.5z"/>
<rect x="723.6" y="864.7" fill="#FFFFFF" width="7.9" height="9"/>
<rect x="723.6" y="882" fill="#FFFFFF" width="7.9" height="23.3"/>
<rect x="498.7" y="1063" fill="#48444A" stroke="#030303" stroke-miterlimit="10" width="39.2" height="80.1"/>
<rect x="1013.1" y="1063" fill="#48444A" stroke="#030303" stroke-miterlimit="10" width="39.2" height="82.6"/>
<rect x="106.1" y="1082.4" fill="none" stroke="#010101" stroke-miterlimit="10" width="392.6" height="34.1"/>
<path fill="none" stroke="#010101" stroke-miterlimit="10" d="M665.4,329.2h-63.9v-69.3h63.9V329.2z M665.4,336.7h-63.9V406h63.9
	V336.7z M621.9,329.2v-69.3 M644.2,329.2v-69.3 M665.4,294.7h-63.9 M621.9,406v-69.3 M644.2,406v-69.3 M601.4,371.2h63.9
	 M675.1,248.7h-83.7v178.9h83.7V248.7z M688,235.8H577.4v203.7H688V235.8z M675.1,415.4h-83.7v12.2h83.7V415.4z"/>
<rect x="471.1" y="196.3" fill="#FFFFFF" stroke="#010101" stroke-miterlimit="10" width="591.6" height="16.9"/>
<rect x="521.7" y="1238" fill="#797C83" stroke="#030303" stroke-miterlimit="10" width="508.3" height="7.5"/>
<rect x="521.7" y="1203.1" fill="#797C83" stroke="#030303" stroke-miterlimit="10" width="508.3" height="7.5"/>
<rect x="521.7" y="1170.1" fill="#797C83" stroke="#030303" stroke-miterlimit="10" width="508.3" height="7.5"/>
<line fill="none" stroke="#010101" stroke-miterlimit="10" x1="152.8" y1="606.1" x2="499.8" y2="606.1"/>
<g>
	<path fill="none" stroke="#010101" stroke-miterlimit="10" d="M566.2,694.8c-0.4,2.2-0.4,4.3-0.4,6.5c0,18.3,7.2,33,16.2,33
		s16.2-14.7,16.2-33c0-2.2,0-4.3-0.4-6.5H566.2z"/>
	<path fill="#010101" d="M601.8,699.9h-39.5c-1.8,0-3.2-1.4-3.2-3.2V693c0-1.8,1.4-3.2,3.2-3.2h39.5c1.8,0,3.2,1.4,3.2,3.2v3.6
		C605,698.4,603.6,699.9,601.8,699.9z"/>
	<path fill="#010101" d="M586,698.4h-8.3c-4.7,0-8.6-4-8.6-8.6v-9.7c0-4.7,4-8.6,8.6-8.6h8.3c4.7,0,8.6,4,8.6,8.6v9.7
		C594.6,694.8,590.7,698.4,586,698.4z"/>
	<path fill="#010101" d="M593.2,737.2h-22.6c-1.8,0-2.9-1.4-2.9-2.9v-5.7c0-1.8,1.4-2.9,2.9-2.9h22.6c1.8,0,2.9,1.4,2.9,2.9v5.7
		C596.4,736.1,595,737.2,593.2,737.2z"/>
	<path fill="#010101" d="M582,674.4L582,674.4c-2.5,0-4.7-2.2-4.7-4.7l0,0c0-2.5,2.2-4.7,4.7-4.7l0,0c2.5,0,4.7,2.2,4.7,4.7l0,0
		C586.7,672.2,584.6,674.4,582,674.4z"/>
	<path fill="#010101" d="M582,741.9L582,741.9c-2.5,0-4.7-2.2-4.7-4.7l0,0c0-2.5,2.2-4.7,4.7-4.7l0,0c2.5,0,4.7,2.2,4.7,4.7l0,0
		C586.7,740.1,584.6,741.9,582,741.9z"/>
	<rect x="581" y="697.7" fill="#010101" width="1.8" height="30.9"/>
</g>
<g>
	<path fill="none" stroke="#010101" stroke-miterlimit="10" d="M947.4,694.8c-0.4,2.2-0.4,4.3-0.4,6.5c0,18.3,7.2,33,16.2,33
		c9,0,16.2-14.7,16.2-33c0-2.2,0-4.3-0.4-6.5H947.4z"/>
	<path fill="#010101" d="M982.9,699.9h-39.5c-1.8,0-3.2-1.4-3.2-3.2V693c0-1.8,1.4-3.2,3.2-3.2h39.5c1.8,0,3.2,1.4,3.2,3.2v3.6
		C986.1,698.4,984.7,699.9,982.9,699.9z"/>
	<path fill="#010101" d="M967.1,698.4h-8.3c-4.7,0-8.6-4-8.6-8.6v-9.7c0-4.7,4-8.6,8.6-8.6h8.3c4.7,0,8.6,4,8.6,8.6v9.7
		C975.7,694.8,971.8,698.4,967.1,698.4z"/>
	<path fill="#010101" d="M974.3,737.2h-22.6c-1.8,0-2.9-1.4-2.9-2.9v-5.7c0-1.8,1.4-2.9,2.9-2.9h22.6c1.8,0,2.9,1.4,2.9,2.9v5.7
		C977.5,736.1,976.1,737.2,974.3,737.2z"/>
	<path fill="#010101" d="M963.2,674.4L963.2,674.4c-2.5,0-4.7-2.2-4.7-4.7l0,0c0-2.5,2.2-4.7,4.7-4.7l0,0c2.5,0,4.7,2.2,4.7,4.7l0,0
		C967.8,672.2,965.7,674.4,963.2,674.4z"/>
	<path fill="#010101" d="M963.2,741.9L963.2,741.9c-2.5,0-4.7-2.2-4.7-4.7l0,0c0-2.5,2.2-4.7,4.7-4.7l0,0c2.5,0,4.7,2.2,4.7,4.7l0,0
		C967.8,740.1,965.7,741.9,963.2,741.9z"/>
	<rect x="962.1" y="697.7" fill="#010101" width="1.8" height="30.9"/>
</g>
<polygon fill="none" points="106.1,598.9 114.4,598.9 114.4,598.9 "/>
<line fill="none" stroke="#010101" stroke-miterlimit="10" x1="537.5" y1="606.1" x2="1013.1" y2="606.1"/>
<line fill="none" stroke="#010101" stroke-miterlimit="10" x1="1051.2" y1="606.1" x2="1385.6" y2="606.1"/>
<line fill="none" stroke="#010101" stroke-miterlimit="10" x1="615.5" y1="653.9" x2="554.4" y2="653.9"/>
<line fill="none" stroke="#010101" stroke-miterlimit="10" x1="930.1" y1="653.9" x2="992.6" y2="653.9"/>
<line fill="none" stroke="#010101" stroke-miterlimit="10" x1="614.7" y1="763.4" x2="553.7" y2="763.4"/>
<line fill="none" stroke="#010101" stroke-miterlimit="10" x1="929.4" y1="763.4" x2="991.9" y2="763.4"/>
<line fill="none" stroke="#010101" stroke-miterlimit="10" x1="616.9" y1="803" x2="555.8" y2="803"/>
<line fill="none" stroke="#010101" stroke-miterlimit="10" x1="931.6" y1="803" x2="994.1" y2="803"/>
<line fill="none" stroke="#010101" stroke-miterlimit="10" x1="613.7" y1="845" x2="552.6" y2="845"/>
<line fill="none" stroke="#010101" stroke-miterlimit="10" x1="928.3" y1="845" x2="990.8" y2="845"/>
<line fill="none" stroke="#010101" stroke-miterlimit="10" x1="615.8" y1="884.5" x2="554.7" y2="884.5"/>
<line fill="none" stroke="#010101" stroke-miterlimit="10" x1="930.5" y1="884.5" x2="993" y2="884.5"/>
<line fill="none" stroke="#010101" stroke-miterlimit="10" x1="613.7" y1="920.4" x2="552.6" y2="920.4"/>
<line fill="none" stroke="#010101" stroke-miterlimit="10" x1="928.3" y1="920.4" x2="990.8" y2="920.4"/>
<line fill="none" stroke="#010101" stroke-miterlimit="10" x1="615.8" y1="959.9" x2="554.7" y2="959.9"/>
<line fill="none" stroke="#010101" stroke-miterlimit="10" x1="930.5" y1="959.9" x2="993" y2="959.9"/>
<line fill="none" stroke="#010101" stroke-miterlimit="10" x1="615.5" y1="996.2" x2="554.4" y2="996.2"/>
<line fill="none" stroke="#010101" stroke-miterlimit="10" x1="614.7" y1="1035.7" x2="537.9" y2="1035.7"/>
<line fill="none" stroke="#010101" stroke-miterlimit="10" x1="930.8" y1="996.2" x2="993.3" y2="996.2"/>
<line fill="none" stroke="#010101" stroke-miterlimit="10" x1="930.1" y1="1035.7" x2="1014.2" y2="1035.7"/>
</svg>
