<?xml version="1.0" encoding="utf-8"?>
<!-- Generator: Adobe Illustrator 18.0.0, SVG Export Plug-In . SVG Version: 6.00 Build 0)  -->
<!DOCTYPE svg PUBLIC "-//W3C//DTD SVG 1.1//EN" "http://www.w3.org/Graphics/SVG/1.1/DTD/svg11.dtd">
<svg version="1.1" id="Layer_1" xmlns="http://www.w3.org/2000/svg" xmlns:xlink="http://www.w3.org/1999/xlink" x="0px" y="0px"
	 viewBox="0 0 277.3 372.9" enable-background="new 0 0 277.3 372.9" xml:space="preserve">
<g>
	<ellipse fill="#9FB797" cx="42" cy="135.1" rx="42" ry="98.4"/>
	<line fill="none" stroke="#0E0E0E" stroke-miterlimit="10" x1="45.6" y1="71.8" x2="45.6" y2="339.8"/>
	<line fill="none" stroke="#0E0E0E" stroke-miterlimit="10" x1="15.1" y1="135.1" x2="45.6" y2="184.6"/>
	<line fill="none" stroke="#0E0E0E" stroke-miterlimit="10" x1="70" y1="106.7" x2="45.6" y2="146.6"/>
	<line fill="none" stroke="#0E0E0E" stroke-miterlimit="10" x1="45.6" y1="117.5" x2="30.2" y2="84.4"/>
</g>
<ellipse fill="#B7AF98" cx="128.6" cy="220.2" rx="42" ry="98.4"/>
<line fill="none" stroke="#0E0E0E" stroke-miterlimit="10" x1="132.2" y1="157" x2="126.4" y2="372.9"/>
<line fill="none" stroke="#0E0E0E" stroke-miterlimit="10" x1="98.8" y1="217.3" x2="129.3" y2="266.9"/>
<line fill="none" stroke="#0E0E0E" stroke-miterlimit="10" x1="158.8" y1="191.5" x2="130.7" y2="237.4"/>
<line fill="none" stroke="#0E0E0E" stroke-miterlimit="10" x1="130.7" y1="203.7" x2="115.3" y2="171"/>
<ellipse fill="#9FB797" cx="235.3" cy="98.4" rx="42" ry="98.4"/>
<line fill="none" stroke="#0E0E0E" stroke-miterlimit="10" x1="238.9" y1="35.2" x2="238.9" y2="303.2"/>
<line fill="none" stroke="#0E0E0E" stroke-miterlimit="10" x1="208.3" y1="98.4" x2="238.9" y2="148"/>
<line fill="none" stroke="#0E0E0E" stroke-miterlimit="10" x1="263.7" y1="70" x2="238.9" y2="109.6"/>
<line fill="none" stroke="#0E0E0E" stroke-miterlimit="10" x1="238.9" y1="80.8" x2="223.8" y2="47.8"/>
</svg>
